<svg xmlns="http://www.w3.org/2000/svg" fill="none" viewBox="0 0 280 130"><path fill="url(#a)" d="M235.31 129.996c-4.523 0-7.684-3.099-7.684-7.538 0-.739.107-1.544.32-2.439h-.12l30.634-84.707c1.714-4.518 4.394-6.615 8.44-6.615 4.524 0 7.684 3.099 7.684 7.537 0 1.122-.24 2.395-.739 3.904l-30.108 83.246c-1.7 4.519-4.376 6.616-8.427 6.616v-.004Zm-4.737-11.023-.094.28c-.414 1.26-.627 2.337-.627 3.205 0 3.228 2.141 5.312 5.458 5.312 3.125 0 4.959-1.496 6.339-5.16l30.091-83.202c.405-1.229.618-2.31.618-3.174 0-3.228-2.141-5.311-5.458-5.311-3.12 0-4.959 1.496-6.352 5.164l-29.98 82.89.005-.004Zm-58.048-14.26h-20.524c-5.231 0-8.227-2.551-8.227-6.994V8.08c0-4.835 3.308-8.08 8.227-8.08 4.92 0 8.227 3.245 8.227 8.08v80.192h12.297c5.791 0 12.701-1.776 12.701-10.23v-1.086c0-4.528 3.539-7.943 8.227-7.943 4.688 0 8.227 3.415 8.227 7.943v1.1c0 8.422-3.001 15.367-8.681 20.082-5.178 4.3-12.256 6.575-20.479 6.575h.005ZM152.001 2.226c-3.646 0-6.001 2.297-6.001 5.854v89.64c0 3.209 1.963 4.767 6.001 4.767h20.524c19.855 0 26.934-12.62 26.934-24.432v-1.1c0-3.312-2.525-5.716-6.002-5.716s-6.001 2.404-6.001 5.717v1.086c0 7.915-5.44 12.456-14.927 12.456h-14.522V8.08c0-3.557-2.355-5.854-6.001-5.854h-.005ZM51.731 104.713H7.546c-4.443 0-7.546-3.379-7.546-8.218 0-4.84 3.103-8.218 7.546-8.218h9.42V76.96c0-4.528 3.54-7.942 8.227-7.942 4.688 0 8.227 3.414 8.227 7.942v11.317h18.311c4.443 0 7.546 3.379 7.546 8.218s-3.103 8.218-7.546 8.218ZM7.546 90.498c-3.232 0-5.32 2.355-5.32 5.992 0 3.638 2.088 5.993 5.32 5.993h44.19c3.232 0 5.32-2.355 5.32-5.993 0-3.637-2.088-5.992-5.32-5.992H31.199V76.956c0-3.26-2.582-5.717-6.001-5.717-3.42 0-6.001 2.458-6.001 5.717v13.542H7.546Zm111.587 14.206H98.748c-20.39 0-28.337-7.897-28.337-28.167V36.635c0-4.528 3.54-7.942 8.227-7.942 4.688 0 8.227 3.414 8.227 7.942v37.85c0 10.244.677 13.783 13.939 13.783h18.333c4.844 0 8.227 3.379 8.227 8.218v2.725l-.316-.32c-.935 3.512-3.931 5.809-7.924 5.809l.009.004Zm-40.49-73.781c-3.424 0-6.001 2.457-6.001 5.716v39.902c0 19.153 6.833 25.942 26.11 25.942h20.385c3.646 0 6.002-2.355 6.002-5.997v-.423c-.183-3.392-2.494-5.56-5.993-5.56h-18.333c-14.704 0-16.165-4.635-16.165-16.01v-37.85c0-3.258-2.582-5.716-6-5.716l-.005-.004Zm40.503 52.737c-4.692 0-8.227-3.414-8.227-7.942V36.639c0-4.527 3.539-7.942 8.227-7.942 4.688 0 8.227 3.415 8.227 7.942v39.079c0 4.528-3.539 7.942-8.227 7.942Zm0-52.737c-3.423 0-6.001 2.457-6.001 5.716v39.079c0 3.259 2.582 5.716 6.001 5.716 3.419 0 6.001-2.457 6.001-5.716V36.639c0-3.259-2.582-5.716-6.001-5.716Zm111.783 50.974c-3.993 0-6.709-2.163-8.298-6.61L209.907 41.13c-.592-1.638-.89-3.147-.89-4.487 0-4.75 3.361-7.943 8.365-7.943 3.998 0 6.713 2.164 8.303 6.62l12.719 34.147c.592 1.642.89 3.147.89 4.487 0 4.75-3.361 7.942-8.365 7.942Zm-13.547-50.965c-3.731 0-6.139 2.244-6.139 5.716 0 1.082.254 2.333.757 3.717l12.728 34.164c1.286 3.602 3.143 5.142 6.206 5.142 3.73 0 6.139-2.244 6.139-5.716 0-1.082-.254-2.333-.757-3.717l-12.719-34.15c-1.291-3.62-3.148-5.156-6.211-5.156h-.004Zm-23.929 33.465c-4.692 0-8.227-3.415-8.227-7.942v-1.078c0-8.454-6.162-10.23-11.335-10.23h-.823c-4.844 0-8.227-3.38-8.227-8.218 0-4.84 3.383-8.219 8.227-8.219h.823c7.867 0 14.629 2.28 19.562 6.594 5.382 4.71 8.232 11.65 8.232 20.064v1.087c0 4.527-3.54 7.942-8.228 7.942h-.004Zm-6.001-9.02v1.078c0 3.312 2.524 5.716 6.001 5.716 3.477 0 6.001-2.404 6.001-5.716v-1.087c0-11.81-6.718-24.432-25.563-24.432h-.823c-3.646 0-6.001 2.355-6.001 5.992 0 3.638 2.355 5.993 6.001 5.993h.823c8.615 0 13.556 4.536 13.561 12.447v.014-.005Zm-162.259 9.02c-4.692 0-8.227-3.415-8.227-7.942v-3.691c0-15.969 8.152-24.067 24.232-24.067h9.852c4.84 0 8.223 3.375 8.227 8.21v.013c-.004 4.834-3.388 8.209-8.227 8.209h-7.8c-8.156 0-9.825 3.873-9.825 9.687v1.643c0 4.528-3.54 7.942-8.227 7.942l-.005-.004Zm16.005-33.474c-14.807 0-22.006 7.145-22.006 21.84v3.692c0 3.258 2.582 5.716 6.001 5.716 3.42 0 6.002-2.458 6.002-5.716v-1.643c0-10.56 6.441-11.913 12.05-11.913h7.8c3.647 0 6.002-2.351 6.002-5.988 0-3.638-2.36-5.988-6.002-5.988h-9.852.005Z"/><path fill="url(#b)" d="M262.871 129.07h-43.793v-17.265h38.046c1.883 0 2.724-.922 2.724-2.983V92.849h-.654c-2.11 3.998-7.457 9.977-20.528 9.977-8.076 0-14.976-2.859-19.967-8.263-4.759-5.16-7.354-12.18-7.537-20.354-1.059 7.995-4.153 14.842-9.113 20.051-5.765 6.059-13.658 9.394-22.219 9.398h-.014c-10.234 0-17.616-3.406-21.952-10.115h-.726v8.196h-19.192V3.864h19.46v35.678h.725c5.169-8 14.602-9.7 21.685-9.7 8.615 0 16.53 3.338 22.282 9.397 4.915 5.178 7.991 11.994 9.055 19.954V31.738h19.46v40.205c0 9.416 4.505 14.188 13.387 14.188 9.896 0 15.572-6.87 15.572-18.845V31.738h19.46v80.913c0 9.816-6.491 16.41-16.156 16.414l-.005.005Zm-41.572-2.226h41.559c8.467 0 13.939-5.57 13.939-14.189V33.964h-15.008v33.322c0 13.191-6.655 21.07-17.798 21.07-10.066 0-15.613-5.827-15.613-16.413v-37.98H213.37v39.333c0 16.334 10.164 27.304 25.287 27.304 5.391 0 15.008-1.216 18.832-9.34l.303-.642h4.273v18.2c0 3.312-1.803 5.209-4.95 5.209h-35.82v12.812l.004.005Zm-66.391-35.527h4.198l.325.535c3.909 6.446 10.578 9.58 20.39 9.58 7.951 0 15.27-3.094 20.617-8.708 5.827-6.121 8.908-14.727 8.908-24.882v-2.185c0-19.776-12.14-33.59-29.53-33.59-9.691 0-16.458 3.08-20.113 9.162l-.325.539h-4.198V6.09h-15.008v93.423h14.741v-8.196h-.005Zm-63.47 11.522h-2.654l.107-.111c-6.976-.544-12.96-3.34-17.412-8.165-4.937-5.351-7.545-12.706-7.545-21.267V48.99h-9.19c-8.85 0-13.93 4.777-13.93 13.102v39.648H21.356V31.738h19.193v7.652h.578c2.133-5.12 7.03-7.928 13.895-7.928h9.318v.276h19.054v40.205c0 9.416 4.505 14.188 13.382 14.188 9.897 0 15.573-6.87 15.573-18.845V31.738h19.459v70.001h-19.192v-8.877h-.654c-2.111 3.998-7.457 9.977-20.528 9.977h.004ZM66.158 33.964v39.332c0 16.334 10.164 27.304 25.287 27.304h.904c5.507-.143 14.299-1.643 17.919-9.327l.303-.641h4.273v8.877h14.741V33.963h-15.008v33.323c0 13.191-6.655 21.07-17.798 21.07-10.066 0-15.609-5.827-15.609-16.413v-37.98H66.16Zm-42.573 65.55h15.007V62.09c0-9.599 6.041-15.328 16.156-15.328h7.368V33.688h-7.092c-4.367 0-10.008 1.246-12.078 7.185l-.263.748h-4.358v-7.653h-14.74v65.55-.005Zm151.022-10.89c-11.976 0-19.713-8.32-19.713-21.195v-1.367c0-12.875 7.737-21.196 19.713-21.196 11.975 0 19.726 8.32 19.726 21.196v1.367c0 12.874-7.742 21.195-19.726 21.195Zm0-41.532c-10.787 0-17.487 7.27-17.487 18.97v1.367c0 11.7 6.7 18.969 17.487 18.969 10.787 0 17.5-7.27 17.5-18.97v-1.366c0-11.7-6.704-18.97-17.5-18.97Z"/><defs><linearGradient id="a" x1="137.292" x2="137.292" y1="0" y2="130" gradientUnits="userSpaceOnUse"><stop stop-color="#E85554"/><stop offset="1" stop-color="#4C3E84"/></linearGradient><linearGradient id="b" x1="150.194" x2="150.194" y1="3.864" y2="129.07" gradientUnits="userSpaceOnUse"><stop stop-color="#E85554"/><stop offset="1" stop-color="#4C3E84"/></linearGradient></defs></svg>