<svg xmlns="http://www.w3.org/2000/svg" xml:space="preserve" viewBox="0 0 640 480"><path fill="#e85454" d="M616.857 174.84 478.173 36.158 154.43 36.12 17.203 173.348 317.758 473.94z"/><path d="M341.316 309.067c-26.39-26.39-58.968-35.672-81.427-13.213-22.459 22.458-13.213 54.964 13.213 81.426 26.426 26.463 58.968 35.672 81.427 13.214 22.459-22.46 13.213-54.964-13.213-81.427zm-24.498 24.497c19.402 19.401 21.84 29.557 16.09 35.308-5.752 5.751-15.944 3.276-35.309-16.089-19.365-19.365-21.84-29.557-16.089-35.308 5.752-5.751 15.944-3.276 35.308 16.089zm143.78-51.87-91.873-91.874-22.568 22.568 41.496 41.496-60.242-22.822-23.915 23.914 91.874 91.947 22.568-22.568-42.516-42.515 61.88 23.296 23.296-23.406zm-4.368-136.755-21.33-21.33-53.763 53.799 91.874 91.874 23.805-23.806-35.89-35.89 24.388-24.388-21.33-21.33-24.388 24.387-13.36-13.359zm-222.513 58.968-62.462-62.39-23.114 23.115 61.88 61.88c5.46 5.46 5.205 12.376-.728 18.2s-12.667 6.042-18.2.546l-61.88-61.88-23.806 23.805 62.426 62.426c19.292 19.292 44.408 17.181 63.7-2.075 19.292-19.255 21.33-44.408 2.075-63.7h.073zm105.196-46.3L247.04 65.768l-22.568 22.714 41.496 41.496-60.242-23.005-23.952 23.915 91.874 91.873 22.568-22.568-42.479-42.588 61.88 23.296zm43.098-104.469-24.024 24.024c8.008 9.61 8.008 13.468 4.368 17.108-7.717 7.717-18.018-.728-34.653-17.326-16.635-16.598-24.752-26.681-17.035-34.398 3.167-3.167 6.916-3.858 15.142 3.276l23.806-23.806c-21.84-19.546-40.586-21.039-60.06-1.528-23.915 23.95-17.727 49.358 13.759 80.88 31.486 31.523 56.93 37.674 80.335 14.306 21.039-21.04 19.947-37.565-1.456-62.608h-.11z" fill="#5c4594"/></svg>