<svg xmlns="http://www.w3.org/2000/svg" viewBox="0 0 708.66 188.02"><defs><style>.cls-1{fill:#333;}.cls-2{fill:#ea543c;}</style></defs><g id="Ebene_2" data-name="Ebene 2"><g id="Ebene_1-2" data-name="Ebene 1"><path class="cls-1" d="M73.37,0,68,15.41l58.88,170h46.61L110.65,5.6A8.34,8.34,0,0,0,102.77,0Z"/><rect class="cls-1" x="193.78" y="0.01" width="41.82" height="185.38"/><path class="cls-2" d="M29.25,129.52a29.25,29.25,0,1,0,29.24,29.25,29.25,29.25,0,0,0-29.24-29.25"/><path class="cls-1" d="M640.63,15.41,635.29,0h-29.4A8.34,8.34,0,0,0,598,5.6L535.14,185.38h46.61Z"/><path class="cls-2" d="M708.66,158.77A29.25,29.25,0,1,0,679.41,188a29.24,29.24,0,0,0,29.25-29.25"/><path class="cls-1" d="M481.28,111.38s14.33-13.26,20.17-18.75c9.58-9,14.5-22.14,14.87-35.9.86-31.18-25.12-56.6-56.5-56.6H370.71l-.08,185.27h42V38.23h43.58c11.29,0,19.43,8.36,19.43,18.53,0,5.71-3,10.28-6.81,14.1-6.42,6.42-37.41,37.19-37.41,37.19l42.13,77.35,48.5-.1Z"/><path class="cls-1" d="M344.19,0H298L252.16,75a28.19,28.19,0,0,0-.08,29l47.83,81.43h47L289.83,89.58Z"/></g></g></svg>